<svg xmlns="http://www.w3.org/2000/svg" xmlns:xlink="http://www.w3.org/1999/xlink" xml:space="preserve" viewBox="0 0 500 500"><path d="M41.058 263.177s2.344 72.677 63.013 121.118 144.737 51.91 212.794 56.511 120.331-33.926 128.21-92.165c7.878-58.239-44.126-75.335-72.341-141.63s-25.705-88.086-85.406-128.86-153.093-15.737-202.059 54.115c-48.965 69.852-44.211 130.911-44.211 130.911" style="fill:#c6ff00"/><path d="M41.058 263.177s2.344 72.677 63.013 121.118 144.737 51.91 212.794 56.511 120.331-33.926 128.21-92.165c7.878-58.239-44.126-75.335-72.341-141.63s-25.705-88.086-85.406-128.86-153.093-15.737-202.059 54.115c-48.965 69.852-44.211 130.911-44.211 130.911" style="opacity:.7;fill:#fff"/><path d="M68.667 380.533H59.49m381.02 0H83.195" style="fill:none;stroke:#263238;stroke-width:1.1133;stroke-miterlimit:10"/><ellipse cx="306.068" cy="410.546" rx="30.395" ry="8.359" style="fill:#263238"/><path d="M149.026 429.539c-31.623 0-36.292-4.572-36.753-8.261-.2-1.598.284-3.022 1.439-4.233 8.522-8.936 57.613-5.157 125.56.076 9.476.73 19.279 1.484 29.33 2.231 68.653 5.101 96.291 4.437 101.974-2.458 1.165-1.414 1.408-3.178.76-5.551-2.715-9.956-39.072-10.033-52.848-9.226a1.193 1.193 0 0 1-1.255-1.116 1.19 1.19 0 0 1 1.116-1.255c5.268-.309 51.568-2.634 55.28 10.974.856 3.139.457 5.653-1.22 7.687-6.413 7.78-32.65 8.615-103.984 3.315-10.053-.747-19.857-1.502-29.336-2.231-64.762-4.988-115.915-8.928-123.657-.804-.656.688-.911 1.418-.801 2.298.294 2.353 5.947 7.632 52.01 5.793 25.728-1.026 51.581-3.828 51.839-3.856a1.188 1.188 0 0 1 .258 2.362c-.259.028-26.182 2.838-51.991 3.867-6.69.266-12.565.388-17.721.388z" style="fill:#fff;stroke:#263238;stroke-width:1.1133;stroke-miterlimit:10"/><defs><circle id="a" cx="294.77" cy="382.081" r="35.806" transform="rotate(-13.079 294.742 382.05)"/></defs><use xlink:href="#a" style="overflow:visible;fill:#fff"/><clipPath id="b"><use xlink:href="#a" style="overflow:visible"/></clipPath><path d="M294.77 417.887c19.775 0 35.806-16.031 35.806-35.806a35.64 35.64 0 0 0-6.221-20.169c-.396 15.594-9.02 38.625-53.786 46.552 6.373 5.85 14.869 9.423 24.201 9.423" style="clip-path:url(#b);fill:#c6ff00"/><path d="M294.77 417.887c19.775 0 35.806-16.031 35.806-35.806a35.64 35.64 0 0 0-6.221-20.169c-.396 15.594-9.02 38.625-53.786 46.552 6.373 5.85 14.869 9.423 24.201 9.423" style="opacity:.3;clip-path:url(#b);fill:#fff"/><g style="clip-path:url(#b)"><path d="M312.394 396.118c-10.518-10.291-22.641-13.505-22.641-13.505s12.123 3.214 22.641 13.505c.632.009 1.251.025 1.896.026 4.965-5.001 8.41-9.835 10.788-14.065-16.772-17.742-33.13-15.93-33.13-15.93s16.357-1.812 33.13 15.93a53 53 0 0 0 2.324-4.629c-6.936-9.778-18.951-16.412-25.443-17.433l-1.502-.353c-4.342-.683-7.046-.1-7.046-.1s2.704-.584 7.046.1l4.273-11.965a35.7 35.7 0 0 0-6.176-1.184c-2.762 4.466-9.9 18.745-9.9 47.074 0-28.329 7.138-42.608 9.9-47.074a37 37 0 0 0-3.624-.182c-1.371 0-2.722.084-4.053.234-4.22 6.382-12.289 21.455-12.832 44.075 8.412 2.993 19.616 5.263 34.349 5.476m8.091-7.286c-14.268-13.902-30-14.634-30-14.634s15.732.732 30 14.634" style="fill:none;stroke:#263238;stroke-width:1.1133;stroke-linecap:round;stroke-linejoin:round;stroke-miterlimit:10"/><path d="M278.047 390.642c.543-22.62 8.612-37.694 12.832-44.075a35.7 35.7 0 0 0-9.612 2.467c-4.566 6.655-11.761 19.861-12.35 37.596 2.591 1.397 5.624 2.764 9.13 4.012" style="fill:none;stroke:#263238;stroke-width:1.1133;stroke-linecap:round;stroke-linejoin:round;stroke-miterlimit:10"/><path d="M281.267 349.034c-12.315 5.078-21.178 16.81-22.119 30.72 2.185 2.043 5.352 4.495 9.769 6.876.589-17.735 7.784-30.941 12.35-37.596m46.136 28.417a45 45 0 0 0 1.966-5.304 35.8 35.8 0 0 0-7.63-13.772l-2.717 9.238 2.717-9.238a36 36 0 0 0-7.545-6.426l-3.055 11.41 3.055-11.41a35.7 35.7 0 0 0-9.462-4.25l-4.273 11.965c6.49 1.022 16.647 4.881 26.944 17.787" style="fill:none;stroke:#263238;stroke-width:1.1133;stroke-linecap:round;stroke-linejoin:round;stroke-miterlimit:10"/><path d="M330.77 383.771c.022-.518.039-1.037.039-1.561 0-3.495-.509-6.869-1.441-10.063a45 45 0 0 1-1.966 5.304l.033.04-.033-.04c-.632 1.434-.595 1.414-1.52 3.059.054.057-.858 1.513-.804 1.57-.054-.058-.955 1.8-1.009 1.742-2.378 4.229-9.555 12.327-9.439 12.327-.116 0-3.878 3.41-5.936 5.129l.082-.007-.082.007c-3.401 2.841-7.339 5.683-11.885 8.45.086-.016.176-.026.261-.043-.085.017-.175.027-.261.043-3.783 2.303-8.008 4.547-12.689 6.697a35.9 35.9 0 0 0 12.614 1.615c7.246-3.936 18.911-13.084 34.036-34.269" style="fill:none;stroke:#263238;stroke-width:1.1133;stroke-linecap:round;stroke-linejoin:round;stroke-miterlimit:10"/><path d="M330.77 383.771c-15.125 21.186-26.79 30.333-34.035 34.271 18.46-.914 33.243-15.78 34.035-34.271m-63.881 20.804c4.392 5.5 10.363 9.683 17.232 11.851 4.68-2.15 8.906-4.395 12.689-6.697-8.54 1.577-21.895-2.337-29.921-5.154" style="fill:none;stroke:#263238;stroke-width:1.1133;stroke-linecap:round;stroke-linejoin:round;stroke-miterlimit:10"/><path d="M296.81 409.729c4.546-2.767 8.484-5.609 11.885-8.45-25.784 2.637-41.694-5.345-48.451-9.889a35.8 35.8 0 0 0 6.644 13.186c8.027 2.816 21.382 6.73 29.922 5.153" style="fill:none;stroke:#263238;stroke-width:1.1133;stroke-linecap:round;stroke-linejoin:round;stroke-miterlimit:10"/><path d="M308.695 401.278a81 81 0 0 0 5.595-5.134c-.645-.001-1.265-.017-1.896-.026.136.133.273.262.408.397-.135-.135-.272-.264-.408-.397-14.733-.213-25.937-2.483-34.347-5.476l-.001.02.001-.02c-12.29-4.257-16.714-8.845-18.899-10.888-.055.812-.093 1.63-.093 2.456 0 3.173.417 6.249 1.19 9.179 6.756 4.545 22.666 12.527 48.45 9.889" style="fill:none;stroke:#263238;stroke-width:1.1133;stroke-linecap:round;stroke-linejoin:round;stroke-miterlimit:10"/></g><use xlink:href="#a" style="overflow:visible;fill:none;stroke:#263238;stroke-width:1.1133;stroke-linecap:round;stroke-linejoin:round;stroke-miterlimit:10"/><path d="M360.731 320.884s-2.448-7.957-9.589-10.813c-4.963-1.985-10.676-1.466-15.817-.571-9.581 1.666-17.942 5.476-27.026 8.732 0 0 3.876-1.428 19.789 6.324 5.861 2.856 12.564 5.071 19.266 4.921 5.385-.12 13.633-1.653 13.377-8.593m.863-23.375s-.046-8.324-6.057-13.122c-4.178-3.334-9.797-4.487-14.978-5.116-9.654-1.172-18.759.059-28.396.553 0 0 4.124-.248 17.119 11.771 4.786 4.427 10.563 8.484 17.023 10.277 5.19 1.44 13.53 2.355 15.289-4.363m16.45 30.911s-6.493-5.209-6.515-12.9c-.015-5.345 2.574-10.464 5.301-14.913 5.082-8.292 11.705-14.659 18.082-21.902 0 0-2.757 3.077-1.418 20.727.493 6.501.081 13.548-2.529 19.723-2.098 4.96-6.565 12.062-12.921 9.265m22.995 12.784s-.917-8.274 4.499-13.734c3.764-3.795 9.212-5.59 14.286-6.814 9.454-2.28 18.64-2.111 28.269-2.735 0 0-4.125.231-15.643 13.672-4.242 4.951-9.511 9.649-15.72 12.176-4.989 2.031-13.167 3.904-15.691-2.565" style="fill:#c6ff00"/><path d="M399.532 311.712s-8.247-1.134-12.216-7.721c-2.759-4.578-3.167-10.3-3.113-15.518.101-9.724 2.513-18.59 4.264-28.079 0 0-.785 4.056 9.43 18.512 3.762 5.325 7.029 11.582 7.961 18.221.748 5.333.564 13.721-6.326 14.585m23.735-14.811s5.931 5.841 13.572 4.965c5.31-.609 10.092-3.778 14.193-7.006 7.641-6.015 13.192-13.337 19.641-20.515 0 0-2.734 3.097-20.42 3.828-6.514.27-13.465 1.501-19.292 4.815-4.683 2.663-11.215 7.928-7.694 13.913" style="fill:#c6ff00"/><path d="M416.398 291.127s8.283.832 13.687-4.64c3.756-3.803 5.495-9.27 6.667-14.355 2.183-9.477 1.918-18.66 2.443-28.296 0 0-.189 4.127-13.51 15.782-4.907 4.293-9.55 9.61-12.014 15.845-1.979 5.01-3.768 13.207 2.727 15.664" style="fill:#c6ff00"/><path d="m386.826 371.74-14.295-35.189-16.495-40.687m34.09 69.828 14.295-48.935 15.395-30.24m-24.192 59.931 14.295-8.248m-5.498-21.443-7.148-15.945m16.093.079 17.447-7.776m-55.533 50.034 6.048-24.193m-14.069 5.805-13.972-7.454" style="fill:none;stroke:#263238;stroke-width:1.1133;stroke-linecap:round;stroke-linejoin:round;stroke-miterlimit:10"/><path d="M394.163 389.334h-11.924a8.37 8.37 0 0 1-8.223-6.81l-4.234-22.331h36.838l-4.234 22.331a8.37 8.37 0 0 1-8.223 6.81" style="fill:#263238;stroke:#263238;stroke-width:1.1133;stroke-linecap:round;stroke-linejoin:round;stroke-miterlimit:10"/><path d="M58.663 253.199c0-2.77 1.276-4.807 4.155-4.807 2.933 0 4.21 2.037 4.21 4.807v9.723c0 2.77-1.276 4.807-4.21 4.807-2.879 0-4.155-2.037-4.155-4.807zm1.25 9.805c0 2.064.815 3.585 2.906 3.585 2.119 0 2.96-1.521 2.96-3.585v-9.886c0-2.064-.841-3.586-2.96-3.586-2.091 0-2.906 1.521-2.906 3.586zm9.101-9.805c0-2.77 1.276-4.807 4.155-4.807 2.933 0 4.21 2.037 4.21 4.807v9.723c0 2.77-1.276 4.807-4.21 4.807-2.879 0-4.155-2.037-4.155-4.807zm1.249 9.805c0 2.064.815 3.585 2.906 3.585 2.119 0 2.96-1.521 2.96-3.585v-9.886c0-2.064-.841-3.586-2.96-3.586-2.091 0-2.906 1.521-2.906 3.586zm13.119-14.45c2.933 0 4.074 1.847 4.074 4.617v2.064c0 3.015-1.386 4.509-4.4 4.509h-2.362v7.822h-1.25v-19.012zm-.326 10.049c2.2 0 3.151-.978 3.151-3.286v-2.227c0-2.064-.705-3.395-2.824-3.395h-2.689v8.909zm14.289-5.458v.407H96.15v-.489c0-2.01-.76-3.531-2.824-3.531s-2.824 1.494-2.824 3.504c0 4.617 6.872 4.699 6.872 9.941 0 2.743-1.195 4.753-4.102 4.753s-4.101-2.01-4.101-4.753v-.978h1.195v1.059c0 2.037.787 3.504 2.879 3.504s2.879-1.467 2.879-3.504c0-4.563-6.872-4.644-6.872-9.94 0-2.852 1.25-4.699 4.048-4.726 2.878-.001 4.045 2.009 4.045 4.753m3.126 12.031v2.39h-1.223v-2.39zm3.397 0v2.39h-1.223v-2.39zm3.395 0v2.39h-1.223v-2.39zm-44.58 11.04c2.933 0 4.074 1.847 4.074 4.617v2.064c0 3.015-1.385 4.509-4.4 4.509h-2.363v7.822h-1.25v-19.012zm-.326 10.049c2.2 0 3.15-.978 3.15-3.286v-2.227c0-2.064-.705-3.395-2.824-3.395h-2.689v8.909h2.363zm7.743 4.753-.95 4.21h-1.141l4.155-19.039h1.821l4.236 19.039h-1.25l-.95-4.21zm.19-1.086h5.541l-2.798-12.303zm17.929-9.072v1.412h-1.195v-1.493c0-2.037-.788-3.586-2.879-3.586s-2.879 1.548-2.879 3.586v9.886c0 2.036.788 3.558 2.879 3.558s2.879-1.521 2.879-3.558v-4.101h-2.526v-1.141h3.721v5.16c0 2.743-1.195 4.807-4.102 4.807s-4.101-2.064-4.101-4.807v-9.723c0-2.743 1.195-4.807 4.101-4.807 2.907 0 4.102 2.064 4.102 4.807m8.53 4.156v1.141h-5.188v7.93h6.246v1.141h-7.496v-19.012h7.496v1.141h-6.246v7.659zm8.448 10.212h-1.14v-19.012h1.63l5.703 16.051v-16.051h1.141v19.012h-1.385l-5.948-16.948v16.948zm9.401-14.368c0-2.77 1.276-4.807 4.155-4.807 2.933 0 4.21 2.037 4.21 4.807v9.723c0 2.77-1.276 4.807-4.21 4.807-2.879 0-4.155-2.037-4.155-4.807zm1.249 9.805c0 2.064.815 3.585 2.906 3.585 2.119 0 2.96-1.521 2.96-3.585v-9.886c0-2.064-.841-3.586-2.96-3.586-2.091 0-2.906 1.521-2.906 3.586zm12.386 4.563v-17.871h-3.856v-1.141h8.989v1.141h-3.884v17.871zm17.06-9.75v1.141h-4.915v8.61h-1.25v-19.012h7.224v1.141h-5.975v8.121zm2.881-4.618c0-2.77 1.276-4.807 4.155-4.807 2.933 0 4.21 2.037 4.21 4.807v9.723c0 2.77-1.276 4.807-4.21 4.807-2.879 0-4.155-2.037-4.155-4.807zm1.249 9.805c0 2.064.815 3.585 2.906 3.585 2.119 0 2.96-1.521 2.96-3.585v-9.886c0-2.064-.841-3.586-2.96-3.586-2.091 0-2.906 1.521-2.906 3.586zm10.378-.027c0 2.037.762 3.612 2.853 3.612s2.851-1.575 2.851-3.612v-14.422h1.168v14.368c0 2.716-1.141 4.807-4.047 4.807s-4.075-2.092-4.075-4.807v-14.368h1.25zm10.159 4.59h-1.141v-19.012h1.63l5.703 16.051v-16.051h1.141v19.012h-1.385l-5.948-16.948zm13.665-19.012c2.934 0 4.21 1.928 4.21 4.726v9.56c0 2.797-1.276 4.726-4.21 4.726h-4.183v-19.012zm-.028 17.871c2.119 0 2.988-1.439 2.988-3.531v-9.669c0-2.092-.896-3.531-2.988-3.531h-2.906v16.731z" style="fill:#263238"/><defs><path id="c" d="M231.153 342.281c-22.266.001-35.641-19.753-40.393-37.125l-.161-.609a6.534 6.534 0 0 1 4.682-7.969 6.54 6.54 0 0 1 7.969 4.681l.119.453c3.617 13.221 13.446 28.331 29.213 27.459 6.288-.354 11.352-2.826 15.48-7.555 8.652-9.912 12.519-31.49 11.656-42.367a5.227 5.227 0 0 1 4.798-5.625 5.216 5.216 0 0 1 5.625 4.797c.962 12.105-.317 38.141-12.232 51.79-6.473 7.415-14.746 11.455-24.592 12.01q-1.097.06-2.164.06"/></defs><use xlink:href="#c" style="overflow:visible;fill:#fff"/><clipPath id="d"><use xlink:href="#c" style="overflow:visible"/></clipPath><path d="M264.514 273.623a5.23 5.23 0 0 0-4.798 5.625c.421 5.308-.287 13.165-2.125 20.97 2.259-.11 4.853.141 7.766 1.012-.423 5.341-2.103 13.19-7.632 20.868-9.711 13.488-24.279 17.805-35.609 16.186-5.065-.724-10.881-3.388-15.768-6.113 6.462 6.05 14.718 10.11 24.805 10.11q1.067 0 2.162-.061c9.846-.555 18.12-4.595 24.592-12.01 11.915-13.649 13.194-39.685 12.232-51.79a5.215 5.215 0 0 0-5.625-4.797" style="clip-path:url(#d);fill:#c6ff00"/><path d="M264.514 273.623a5.23 5.23 0 0 0-4.798 5.625c.421 5.308-.287 13.165-2.125 20.97 2.259-.11 4.853.141 7.766 1.012-.423 5.341-2.103 13.19-7.632 20.868-9.711 13.488-24.279 17.805-35.609 16.186-5.065-.724-10.881-3.388-15.768-6.113 6.462 6.05 14.718 10.11 24.805 10.11q1.067 0 2.162-.061c9.846-.555 18.12-4.595 24.592-12.01 11.915-13.649 13.194-39.685 12.232-51.79a5.215 5.215 0 0 0-5.625-4.797" style="opacity:.5;clip-path:url(#d);fill:#fff"/><use xlink:href="#c" style="overflow:visible;fill:none;stroke:#263238;stroke-width:1.1133;stroke-linecap:round;stroke-linejoin:round;stroke-miterlimit:10"/><path d="M218.311 328.747c.525-2.449-5.336 1.385-10.245 4.952a38.7 38.7 0 0 0 5.843 4.066c1.753-2.844 3.895-6.651 4.402-9.018m12.842 13.534q1.067 0 2.162-.061a37.6 37.6 0 0 0 6.311-.892c-2.758-3.602-6.554-8.354-7.651-8.719-1.248-.416-3.658 5.715-4.993 9.433a36 36 0 0 0 4.171.239m-27.786-40.569-.119-.453a6.536 6.536 0 0 0-12.651 3.288l.161.609c1.578 5.767 4.112 11.794 7.6 17.276l11.91-5.671c-3.204-4.621-5.512-9.973-6.901-15.049m54.541 28.498a33 33 0 0 0 2.541-3.341c-3.775-1.291-9.439-3.066-11.541-2.875-2.492.227.889 8.225 2.635 12.01 2.281-1.622 4.406-3.551 6.365-5.794m.208-21.366c-.396.793 4.494 4.36 7.794 6.648 1.05-3.089 1.879-6.301 2.521-9.522-4.003.796-9.924 2.093-10.315 2.874m11.935-14.793c.222-2.85.326-5.572.339-8.075-3.438 1.898-7.521 4.514-7.521 6.234 0 1.663 3.821 1.929 7.182 1.841" style="fill:#c6ff00;stroke:#263238;stroke-width:1.1133;stroke-linecap:round;stroke-linejoin:round;stroke-miterlimit:10"/><defs><path id="e" d="M216.208 216.681s-9.705 28.12-4.479 50.018 24.387 29.115 24.387 29.115-14.184 4.977-10.949 12.691 15.428 2.737 19.41.249 8.958-9.954 9.705-14.931.498-7.714.498-7.714 16.175-1.742 27.124-10.7c0 0 9.705 7.714 16.673 6.221s16.921-13.935 15.926-25.133-7.465-11.198-11.447-9.456-5.475 3.484-5.475 3.484 5.724-6.968 0-16.673c-5.723-9.705-15.926-10.452-15.926-10.452s-2.986-15.926-11.945-21.898c-8.958-5.973-40.811-12.194-53.502 15.179"/></defs><use xlink:href="#e" style="overflow:visible;fill:#fff"/><clipPath id="f"><use xlink:href="#e" style="overflow:visible"/></clipPath><path d="M290.143 226.354c-7.051 11.742-21.354 25.246-43.858 27.22-19.803 1.737-30.904-2.163-36.02-4.871.69-16.779 5.944-32.021 5.944-32.021 12.691-27.373 44.543-21.152 53.502-15.18 8.958 5.972 11.945 21.898 11.945 21.898s4.055.302 8.487 2.954m12.912 20.686c-3.982 1.742-5.475 3.484-5.475 3.484s1.729-2.121 2.333-5.64c-13.451 6.694-12.401 21.018-14.075 21.018-2.055 0-3.082-7.192-3.082-7.192s-2.568 10.274-17.979 17.465-32.876 1.541-32.876 1.541 3.596 8.219-5.651 7.192c-3.124-.347-5.471-1.402-7.229-2.642 7.468 9.913 17.094 13.547 17.094 13.547s-14.184 4.977-10.949 12.691 15.428 2.737 19.41.249 8.958-9.954 9.705-14.931.498-7.714.498-7.714 16.175-1.742 27.124-10.7c0 0 9.705 7.714 16.673 6.221s16.921-13.935 15.926-25.133-7.465-11.198-11.447-9.456" style="clip-path:url(#f);fill:#c6ff00"/><path d="M290.143 226.354c-7.051 11.742-21.354 25.246-43.858 27.22-19.803 1.737-30.904-2.163-36.02-4.871.69-16.779 5.944-32.021 5.944-32.021 12.691-27.373 44.543-21.152 53.502-15.18 8.958 5.972 11.945 21.898 11.945 21.898s4.055.302 8.487 2.954m12.912 20.686c-3.982 1.742-5.475 3.484-5.475 3.484s1.729-2.121 2.333-5.64c-13.451 6.694-12.401 21.018-14.075 21.018-2.055 0-3.082-7.192-3.082-7.192s-2.568 10.274-17.979 17.465-32.876 1.541-32.876 1.541 3.596 8.219-5.651 7.192c-3.124-.347-5.471-1.402-7.229-2.642 7.468 9.913 17.094 13.547 17.094 13.547s-14.184 4.977-10.949 12.691 15.428 2.737 19.41.249 8.958-9.954 9.705-14.931.498-7.714.498-7.714 16.175-1.742 27.124-10.7c0 0 9.705 7.714 16.673 6.221s16.921-13.935 15.926-25.133-7.465-11.198-11.447-9.456" style="opacity:.5;clip-path:url(#f);fill:#fff"/><path d="M254.779 286.109s-16.565 1.348-28.15-12.911" style="clip-path:url(#f);fill:none;stroke:#263238;stroke-width:1.1133;stroke-linecap:round;stroke-linejoin:round;stroke-miterlimit:10"/><use xlink:href="#e" style="overflow:visible;fill:none;stroke:#263238;stroke-width:1.1133;stroke-linecap:round;stroke-linejoin:round;stroke-miterlimit:10"/><path d="M297.581 250.524s-5.226 3.484-7.714 14.184" style="fill:none;stroke:#263238;stroke-width:1.1133;stroke-linecap:round;stroke-linejoin:round;stroke-miterlimit:10"/><path d="M307.172 255.1c-.615 1.823-2.28 2.908-3.719 2.422s-2.107-2.357-1.492-4.18 2.28-2.908 3.719-2.422 2.108 2.356 1.492 4.18m5.148 3.238c-.615 1.823-2.28 2.908-3.719 2.422s-2.107-2.357-1.492-4.18 2.28-2.908 3.719-2.422 2.107 2.357 1.492 4.18" style="fill:#fff;stroke:#263238;stroke-width:1.1133;stroke-linecap:round;stroke-linejoin:round;stroke-miterlimit:10"/><path d="M313.417 263.187c-.447 1.324-1.656 2.112-2.701 1.759s-1.53-1.712-1.084-3.036c.447-1.324 1.656-2.112 2.701-1.759s1.531 1.712 1.084 3.036m-6.568 6.662c-1.798 3.246-5.4 4.69-8.044 3.225s-3.332-5.284-1.534-8.53 5.4-4.69 8.045-3.225 3.331 5.284 1.533 8.53" style="fill:#fff;stroke:#263238;stroke-width:1.1133;stroke-linecap:round;stroke-linejoin:round;stroke-miterlimit:10"/><path d="M236.116 295.814s4.479 2.488 10.7.746m-21.649 11.945s.995-4.23 7.216-7.217m-.995 10.95s2.488-5.972 6.719-8.71" style="fill:none;stroke:#263238;stroke-width:1.1133;stroke-linecap:round;stroke-linejoin:round;stroke-miterlimit:10"/><path d="M133.257 243.395q-3.219-2.574-3.219-7.081v-23.713H68.88q-4.936 0-7.993-3.326t-3.058-7.832q0-3.54 2.039-6.652l58.582-92.058q6.544-10.193 17.489-10.193 6.438 0 10.729 3.756t4.292 11.159v89.483h15.558q3.754 0 5.794 2.307 2.037 2.308 2.038 5.526 0 3.22-2.038 5.526-2.04 2.308-5.794 2.307h-15.664v23.713q0 4.506-3.112 7.081t-7.189 2.575q-4.08-.003-7.296-2.578m-3.219-46.458v-82.402l-51.286 82.402zm88.088 46.941q-9.55-4.344-15.504-11.588-5.956-7.242-9.764-17.65a102.4 102.4 0 0 1-5.311-21.351q-1.503-10.943-1.502-23.927-.001-79.075 53.969-79.075 53.861 0 53.862 79.075 0 12.875-1.448 23.82a100.3 100.3 0 0 1-5.258 21.351q-3.81 10.408-9.764 17.65-5.955 7.243-15.504 11.641-9.55 4.399-21.888 4.399t-21.888-4.345m32.564-15.129q4.773-2.092 8.047-5.472 3.272-3.379 5.687-8.423a60 60 0 0 0 3.809-10.193q1.394-5.15 2.199-11.641t1.073-11.909q.267-5.416.268-11.749-.001-6.652-.268-12.285-.27-5.631-1.127-12.124-.86-6.491-2.253-11.641a56.7 56.7 0 0 0-3.808-10.085q-2.414-4.935-5.687-8.262-3.274-3.324-7.994-5.311-4.722-1.985-10.622-1.985-5.902 0-10.622 1.985-4.722 1.986-7.939 5.257-3.22 3.274-5.687 8.209a51.5 51.5 0 0 0-3.81 10.085q-1.343 5.15-2.199 11.695-.86 6.546-1.127 12.178-.269 5.634-.268 12.285-.001 6.33.268 11.802.267 5.472 1.073 11.963.803 6.493 2.199 11.641a59.7 59.7 0 0 0 3.809 10.193q2.415 5.044 5.632 8.368 3.218 3.327 7.994 5.418 4.774 2.093 10.675 2.093 5.904.002 10.678-2.092m135.888 14.646q-3.219-2.574-3.219-7.081v-23.713h-61.157q-4.937 0-7.994-3.326-3.058-3.325-3.058-7.832 0-3.54 2.038-6.652l58.583-92.058q6.544-10.193 17.489-10.193 6.436 0 10.729 3.756 4.291 3.756 4.292 11.159v89.483h15.557q3.755 0 5.794 2.307t2.039 5.526-2.039 5.526q-2.039 2.308-5.794 2.307h-15.665v23.713q0 4.506-3.111 7.081-3.113 2.575-7.189 2.575-4.076-.003-7.295-2.578m-3.219-46.458v-82.402l-51.287 82.402z" style="fill:#263238"/><defs><path id="g" d="M196.052 202.496s-10.452 14.682-11.945 29.613.249 24.885 4.728 28.617c4.479 3.733 8.958 2.24 11.447-1.244s-1.493-15.677-1.493-15.677 4.231-11.696 10.701-19.908 7.714-9.456 7.714-9.456-11.199-12.691-21.152-11.945"/></defs><use xlink:href="#g" style="overflow:visible;fill:#fff"/><clipPath id="h"><use xlink:href="#g" style="overflow:visible"/></clipPath><path d="M196.052 202.496s-3.05 4.289-6.09 10.583c4.995 2.015 12.75 6.105 17.668 13.356a48 48 0 0 1 1.86-2.538c6.47-8.212 7.714-9.456 7.714-9.456s-11.199-12.691-21.152-11.945" style="clip-path:url(#h);fill:#c6ff00"/><path d="M196.052 202.496s-3.05 4.289-6.09 10.583c4.995 2.015 12.75 6.105 17.668 13.356a48 48 0 0 1 1.86-2.538c6.47-8.212 7.714-9.456 7.714-9.456s-11.199-12.691-21.152-11.945" style="opacity:.5;clip-path:url(#h);fill:#fff"/><use xlink:href="#g" style="overflow:visible;fill:none;stroke:#263238;stroke-width:1.1133;stroke-linecap:round;stroke-linejoin:round;stroke-miterlimit:10"/><path d="M188.835 260.727s-1.742-3.982-1.742-10.203m8.461 11.696s-2.488-4.23-2.737-11.447" style="fill:none;stroke:#263238;stroke-width:1.1133;stroke-linecap:round;stroke-linejoin:round;stroke-miterlimit:10"/><path d="M199.287 229.123c0-2.624-4.998-7.744-11.951-9.96-.9 2.374-1.704 4.887-2.304 7.465 1.875.357 5.235 1.136 7.785 2.496 3.732 1.99 6.47 2.985 6.47-.001m-3.843-25.732a84 84 0 0 0-4.416 7.556 24.2 24.2 0 0 1 6.019 2.499c7.714 4.479 9.207 4.977 6.719-1.493-1.55-4.029-5.124-6.802-8.322-8.562" style="fill:#c6ff00;stroke:#263238;stroke-width:1.1133;stroke-linecap:round;stroke-linejoin:round;stroke-miterlimit:10"/><defs><path id="i" d="M277.901 195.249s11.841 13.586 14.792 28.298c2.95 14.712 2.193 24.789-1.898 28.943s-8.695 3.107-11.514-.116-.052-15.748-.052-15.748-5.357-11.224-12.601-18.762-8.605-8.654-8.605-8.654 9.899-13.728 19.878-13.961"/></defs><use xlink:href="#i" style="overflow:visible;fill:#fff"/><clipPath id="j"><use xlink:href="#i" style="overflow:visible"/></clipPath><path d="M277.901 195.248c-9.979.233-19.878 13.962-19.878 13.962s1.36 1.116 8.604 8.654a53 53 0 0 1 3.826 4.497c2.534-4.227 7.521-10.883 15.662-15.297-4.019-7-8.214-11.816-8.214-11.816" style="clip-path:url(#j);fill:#c6ff00"/><path d="M277.901 195.248c-9.979.233-19.878 13.962-19.878 13.962s1.36 1.116 8.604 8.654a53 53 0 0 1 3.826 4.497c2.534-4.227 7.521-10.883 15.662-15.297-4.019-7-8.214-11.816-8.214-11.816" style="opacity:.5;clip-path:url(#j);fill:#fff"/><use xlink:href="#i" style="overflow:visible;fill:none;stroke:#263238;stroke-width:1.1133;stroke-linecap:round;stroke-linejoin:round;stroke-miterlimit:10"/><path d="M290.794 252.49s1.343-4.133.733-10.324m-7.273 12.469s2.062-4.454 1.601-11.66" style="fill:none;stroke:#263238;stroke-width:1.1133;stroke-linecap:round;stroke-linejoin:round;stroke-miterlimit:10"/><path d="M277.293 222.064c-.257-2.612 4.214-8.197 10.916-11.085 1.129 2.274 2.176 4.696 3.025 7.203-1.831.54-5.098 1.644-7.502 3.247-3.52 2.348-6.146 3.607-6.439.635m1.3-25.985a84 84 0 0 1 5.135 7.087 24.2 24.2 0 0 0-5.745 3.077c-7.238 5.214-8.675 5.856-6.833-.827 1.148-4.161 4.433-7.271 7.443-9.337" style="fill:#c6ff00;stroke:#263238;stroke-width:1.1133;stroke-linecap:round;stroke-linejoin:round;stroke-miterlimit:10"/><defs><path id="k" d="M195.072 189.797s-3.079 10.394-1.925 14.628 6.544.385 11.933 5.004 10.385 12.929 30.787 14.468c20.402 1.54 32.729-9.464 36.964-15.623s3.849-13.473 11.163-13.858 1.155-14.628-1.155-16.938c0 0 14.243-21.172 14.243-26.561s-13.473-4.234-30.026.77c0 0-12.318-6.544-34.645-2.695s-28.871 10.394-28.871 10.394-27.716 3.464-29.641 6.929c-1.924 3.464 3.85 18.092 21.173 23.482"/></defs><use xlink:href="#k" style="overflow:visible;fill:#fff"/><clipPath id="l"><use xlink:href="#k" style="overflow:visible"/></clipPath><path d="M283.994 194.416c7.314-.385 1.155-14.628-1.155-16.938 0 0 2.709-4.027 5.763-9.014-8.277-4.324-16.397-6.724-18.558-4.293-4.642 5.223-2.114 15.222 0 24.947s-6.343 13.954-12.262 22.41c-5.92 8.457-14.377-.846-14.377-.846-2.96 12.262-15.645 4.228-15.645 4.228-9.725-2.96-26.216-12.685-22.833-19.451 3.383-6.765 4.228-13.108-1.691-18.605-5.92-5.497-29.53-10.055-29.53-10.055-1.236 4.166 4.75 17.827 21.364 22.996 0 0-3.08 10.393-1.925 14.628s6.544.385 11.933 5.004 10.385 12.929 30.787 14.468c20.402 1.54 32.729-9.464 36.964-15.623 4.236-6.157 3.851-13.471 11.165-13.856" style="clip-path:url(#l);fill:#c6ff00"/><path d="M283.994 194.416c7.314-.385 1.155-14.628-1.155-16.938 0 0 2.709-4.027 5.763-9.014-8.277-4.324-16.397-6.724-18.558-4.293-4.642 5.223-2.114 15.222 0 24.947s-6.343 13.954-12.262 22.41c-5.92 8.457-14.377-.846-14.377-.846-2.96 12.262-15.645 4.228-15.645 4.228-9.725-2.96-26.216-12.685-22.833-19.451 3.383-6.765 4.228-13.108-1.691-18.605-5.92-5.497-29.53-10.055-29.53-10.055-1.236 4.166 4.75 17.827 21.364 22.996 0 0-3.08 10.393-1.925 14.628s6.544.385 11.933 5.004 10.385 12.929 30.787 14.468c20.402 1.54 32.729-9.464 36.964-15.623 4.236-6.157 3.851-13.471 11.165-13.856" style="opacity:.5;clip-path:url(#l);fill:#fff"/><path d="M253.893 196.745c.283 2.436-5.129 5.066-12.088 5.875s-12.83-.509-13.113-2.945 5.129-5.066 12.087-5.875c6.96-.81 12.83.509 13.114 2.945" style="clip-path:url(#l);fill:#c6ff00"/><path d="M253.893 196.745c.283 2.436-5.129 5.066-12.088 5.875s-12.83-.509-13.113-2.945 5.129-5.066 12.087-5.875c6.96-.81 12.83.509 13.114 2.945" style="opacity:.5;clip-path:url(#l);fill:#fff"/><use xlink:href="#k" style="overflow:visible;fill:none;stroke:#263238;stroke-width:1.1133;stroke-miterlimit:10"/><path d="M274.687 158.948c-9.954 6.719-6.47 13.438-1.991 17.17 2.735 2.279 7.133 1.959 10.148 1.365l-.005-.005s14.243-21.172 14.243-26.561c.001 0-12.441 1.313-22.395 8.031zm-100.98 7.853c-1.236 4.166 4.75 17.827 21.364 22.996 0 0 12.676-1.236 8.445-11.438-3.946-9.519-23.915-11.889-29.809-11.558zm58.704-17.809c-1.315.227-2.571.464-3.779.707 1.991 10.098 5.29 26.917 8.23 26.917 3.045 0 5.187-18.436 6.149-28.768a82 82 0 0 0-10.6 1.144zm-11.475 24.638c3.062-1.801 2.604-15.329 2.117-22.668-3.717.943-6.79 1.941-9.317 2.908 1.119 6.872 3.937 21.68 7.2 19.76zm29.613-6.221c3.136 1.098 4.888-10.151 5.88-18.813-2.699-.444-5.892-.767-9.561-.809-.096 7.117.294 18.437 3.681 19.622z" style="fill:#c6ff00;stroke:#263238;stroke-width:1.1133;stroke-miterlimit:10"/><path d="M246.361 206.355c-1.693-.411-5.323-.921-8.674 1.063a.867.867 0 0 0-.16 1.375l5.318 4.985a.855.855 0 0 0 1.363-.27l2.717-5.971a.85.85 0 0 0-.564-1.182" style="fill:#c6ff00;stroke:#263238;stroke-width:1.1133;stroke-linecap:round;stroke-linejoin:round;stroke-miterlimit:10"/><path d="M233.737 198.01c.734 1.926.445 3.825-.647 4.241s-2.572-.808-3.306-2.734-.445-3.825.647-4.241 2.572.808 3.306 2.734m14.484-1.378c-.38 2.026.243 3.843 1.391 4.058s2.387-1.253 2.767-3.279-.243-3.843-1.392-4.058c-1.148-.215-2.386 1.253-2.766 3.279" style="fill:#263238"/><path d="M244.208 213.508s-7.097 9.643-13.567-.063" style="fill:none;stroke:#263238;stroke-width:1.1133;stroke-linecap:round;stroke-linejoin:round;stroke-miterlimit:10"/><path d="M242.845 213.778s4.718 4.894 9.695 2.156 1.991-6.968 1.991-6.968" style="fill:none;stroke:#263238;stroke-width:1.1133;stroke-linecap:round;stroke-linejoin:round;stroke-miterlimit:10"/><path d="M221.185 190.303s1.742-6.221 9.954-4.728m14.931-.995s6.221-3.733 11.945 2.24" style="fill:none;stroke:#263238;stroke-width:3.3399;stroke-linecap:round;stroke-linejoin:round;stroke-miterlimit:10"/><path d="m216.457 206.976 5.972 1.493m-.746 2.239-5.226.996m6.221 1.742-3.733 1.99m41.558-11.198 5.225-1.244m-4.23 3.733h3.484m-2.737 2.488 4.728 1.245" style="fill:none;stroke:#263238;stroke-width:1.1133;stroke-linecap:round;stroke-miterlimit:10"/></svg>