<?xml version="1.0" encoding="utf-8"?>
<!-- Generator: Adobe Illustrator 27.5.0, SVG Export Plug-In . SVG Version: 6.00 Build 0)  -->
<svg version="1.1" xmlns="http://www.w3.org/2000/svg" xmlns:xlink="http://www.w3.org/1999/xlink" x="0px" y="0px"
	 viewBox="0 0 500 500" style="enable-background:new 0 0 500 500;" xml:space="preserve">
<g id="Background_Simple">
	<g>
		<path style="fill:#C6FF00;" d="M41.058,263.177c0,0,2.344,72.677,63.013,121.118c60.669,48.44,144.737,51.91,212.794,56.511
			c68.057,4.602,120.331-33.926,128.21-92.165c7.878-58.239-44.126-75.335-72.341-141.63
			c-28.215-66.295-25.705-88.086-85.406-128.86c-59.701-40.774-153.093-15.737-202.059,54.115
			C36.304,202.118,41.058,263.177,41.058,263.177z"/>
		<path style="opacity:0.7;fill:#FFFFFF;" d="M41.058,263.177c0,0,2.344,72.677,63.013,121.118
			c60.669,48.44,144.737,51.91,212.794,56.511c68.057,4.602,120.331-33.926,128.21-92.165c7.878-58.239-44.126-75.335-72.341-141.63
			c-28.215-66.295-25.705-88.086-85.406-128.86c-59.701-40.774-153.093-15.737-202.059,54.115
			C36.304,202.118,41.058,263.177,41.058,263.177z"/>
	</g>
</g>
<g id="Floor">
	<g>
		
			<line style="fill:none;stroke:#263238;stroke-width:1.1133;stroke-miterlimit:10;" x1="68.667" y1="380.533" x2="59.49" y2="380.533"/>
		
			<line style="fill:none;stroke:#263238;stroke-width:1.1133;stroke-miterlimit:10;" x1="440.51" y1="380.533" x2="83.195" y2="380.533"/>
	</g>
</g>
<g id="Yarn_Ball">
	<g>
		<ellipse style="fill:#263238;" cx="306.068" cy="410.546" rx="30.395" ry="8.359"/>
		<g>
			<path style="fill:#FFFFFF;stroke:#263238;stroke-width:1.1133;stroke-miterlimit:10;" d="M149.026,429.539
				c-31.623,0-36.292-4.572-36.753-8.261c-0.2-1.598,0.284-3.022,1.439-4.233c8.522-8.936,57.613-5.157,125.56,0.076
				c9.476,0.73,19.279,1.484,29.33,2.231c68.653,5.101,96.291,4.437,101.974-2.458c1.165-1.414,1.408-3.178,0.76-5.551
				c-2.715-9.956-39.072-10.033-52.848-9.226c-0.652,0.033-1.217-0.462-1.255-1.116c-0.038-0.654,0.461-1.217,1.116-1.255
				c5.268-0.309,51.568-2.634,55.28,10.974c0.856,3.139,0.457,5.653-1.22,7.687c-6.413,7.78-32.65,8.615-103.984,3.315
				c-10.053-0.747-19.857-1.502-29.336-2.231c-64.762-4.988-115.915-8.928-123.657-0.804c-0.656,0.688-0.911,1.418-0.801,2.298
				c0.294,2.353,5.947,7.632,52.01,5.793c25.728-1.026,51.581-3.828,51.839-3.856c0.647-0.072,1.239,0.399,1.31,1.052
				c0.071,0.652-0.4,1.239-1.052,1.31c-0.259,0.028-26.182,2.838-51.991,3.867C160.057,429.417,154.182,429.539,149.026,429.539z"/>
		</g>
		<g>
			<defs>
				
					<ellipse id="XMLID_6_" transform="matrix(0.9741 -0.2263 0.2263 0.9741 -78.8118 76.611)" cx="294.77" cy="382.081" rx="35.806" ry="35.806"/>
			</defs>
			<use xlink:href="#XMLID_6_"  style="overflow:visible;fill:#FFFFFF;"/>
			<clipPath id="XMLID_00000160156511473623298590000004776681387452122505_">
				<use xlink:href="#XMLID_6_"  style="overflow:visible;"/>
			</clipPath>
			<path style="clip-path:url(#XMLID_00000160156511473623298590000004776681387452122505_);fill:#C6FF00;" d="M294.77,417.887
				c19.775,0,35.806-16.031,35.806-35.806c0-7.481-2.298-14.424-6.221-20.169c-0.396,15.594-9.02,38.625-53.786,46.552
				C276.942,414.314,285.438,417.887,294.77,417.887z"/>
			<path style="opacity:0.3;clip-path:url(#XMLID_00000160156511473623298590000004776681387452122505_);fill:#FFFFFF;" d="
				M294.77,417.887c19.775,0,35.806-16.031,35.806-35.806c0-7.481-2.298-14.424-6.221-20.169
				c-0.396,15.594-9.02,38.625-53.786,46.552C276.942,414.314,285.438,417.887,294.77,417.887z"/>
			<g style="clip-path:url(#XMLID_00000160156511473623298590000004776681387452122505_);">
				
					<path style="fill:none;stroke:#263238;stroke-width:1.1133;stroke-linecap:round;stroke-linejoin:round;stroke-miterlimit:10;" d="
					M312.394,396.118c-10.518-10.291-22.641-13.505-22.641-13.505S301.876,385.827,312.394,396.118
					c0.632,0.009,1.251,0.025,1.896,0.026c4.965-5.001,8.41-9.835,10.788-14.065c-16.772-17.742-33.13-15.93-33.13-15.93
					s16.357-1.812,33.13,15.93c0.925-1.645,1.692-3.195,2.324-4.629c-6.936-9.778-18.951-16.412-25.443-17.433l-1.502-0.353
					c-4.342-0.683-7.046-0.1-7.046-0.1s2.704-0.584,7.046,0.1l4.273-11.965c-1.995-0.565-4.056-0.972-6.176-1.184
					c-2.762,4.466-9.9,18.745-9.9,47.074c0-28.329,7.138-42.608,9.9-47.074c-1.192-0.119-2.4-0.182-3.624-0.182
					c-1.371,0-2.722,0.084-4.053,0.234c-4.22,6.382-12.289,21.455-12.832,44.075C286.457,393.635,297.661,395.905,312.394,396.118z
					 M320.485,388.832c-14.268-13.902-30-14.634-30-14.634S306.217,374.93,320.485,388.832z"/>
				
					<path style="fill:none;stroke:#263238;stroke-width:1.1133;stroke-linecap:round;stroke-linejoin:round;stroke-miterlimit:10;" d="
					M278.047,390.642c0.543-22.62,8.612-37.694,12.832-44.075c-3.367,0.379-6.593,1.222-9.612,2.467
					c-4.566,6.655-11.761,19.861-12.35,37.596C271.508,388.027,274.541,389.394,278.047,390.642z"/>
				
					<path style="fill:none;stroke:#263238;stroke-width:1.1133;stroke-linecap:round;stroke-linejoin:round;stroke-miterlimit:10;" d="
					M281.267,349.034c-12.315,5.078-21.178,16.81-22.119,30.72c2.185,2.043,5.352,4.495,9.769,6.876
					C269.506,368.895,276.701,355.689,281.267,349.034z"/>
				
					<path style="fill:none;stroke:#263238;stroke-width:1.1133;stroke-linecap:round;stroke-linejoin:round;stroke-miterlimit:10;" d="
					M327.403,377.451c0.895-2.033,1.527-3.824,1.966-5.304c-1.508-5.169-4.144-9.854-7.63-13.772l-2.717,9.238l2.717-9.238
					c-2.201-2.474-4.741-4.638-7.545-6.426l-3.055,11.41l3.055-11.41c-2.898-1.848-6.077-3.29-9.462-4.25l-4.273,11.965
					C306.949,360.686,317.106,364.545,327.403,377.451z"/>
				
					<path style="fill:none;stroke:#263238;stroke-width:1.1133;stroke-linecap:round;stroke-linejoin:round;stroke-miterlimit:10;" d="
					M330.77,383.771c0.022-0.518,0.039-1.037,0.039-1.561c0-3.495-0.509-6.869-1.441-10.063c-0.439,1.48-1.07,3.271-1.966,5.304
					c0.011,0.014,0.022,0.026,0.033,0.04c-0.011-0.014-0.022-0.026-0.033-0.04c-0.632,1.434-0.595,1.414-1.52,3.059
					c0.054,0.057-0.858,1.513-0.804,1.57c-0.054-0.058-0.955,1.8-1.009,1.742c-2.378,4.229-9.555,12.327-9.439,12.327
					c-0.116,0-3.878,3.41-5.936,5.129c0.028-0.003,0.054-0.004,0.082-0.007c-0.028,0.003-0.054,0.004-0.082,0.007
					c-3.401,2.841-7.339,5.683-11.885,8.45c0.086-0.016,0.176-0.026,0.261-0.043c-0.085,0.017-0.175,0.027-0.261,0.043
					c-3.783,2.303-8.008,4.547-12.689,6.697c3.412,1.077,7.043,1.661,10.811,1.661c0.605,0,1.206-0.016,1.803-0.046
					C303.98,414.104,315.645,404.956,330.77,383.771z"/>
				
					<path style="fill:none;stroke:#263238;stroke-width:1.1133;stroke-linecap:round;stroke-linejoin:round;stroke-miterlimit:10;" d="
					M330.77,383.771c-15.125,21.186-26.79,30.333-34.035,34.271C315.195,417.128,329.978,402.262,330.77,383.771z"/>
				
					<path style="fill:none;stroke:#263238;stroke-width:1.1133;stroke-linecap:round;stroke-linejoin:round;stroke-miterlimit:10;" d="
					M266.889,404.575c4.392,5.5,10.363,9.683,17.232,11.851c4.68-2.15,8.906-4.395,12.689-6.697
					C288.27,411.306,274.915,407.392,266.889,404.575z"/>
				
					<path style="fill:none;stroke:#263238;stroke-width:1.1133;stroke-linecap:round;stroke-linejoin:round;stroke-miterlimit:10;" d="
					M296.81,409.729c4.546-2.767,8.484-5.609,11.885-8.45c-25.784,2.637-41.694-5.345-48.451-9.889
					c1.289,4.882,3.583,9.353,6.644,13.186C274.915,407.392,288.27,411.306,296.81,409.729z"/>
				
					<path style="fill:none;stroke:#263238;stroke-width:1.1133;stroke-linecap:round;stroke-linejoin:round;stroke-miterlimit:10;" d="
					M308.695,401.278c2.058-1.719,3.908-3.434,5.595-5.134c-0.645-0.001-1.265-0.017-1.896-0.026
					c0.136,0.133,0.273,0.262,0.408,0.397c-0.135-0.135-0.272-0.264-0.408-0.397c-14.733-0.213-25.937-2.483-34.347-5.476
					c0,0.007-0.001,0.013-0.001,0.02c0-0.007,0.001-0.013,0.001-0.02c-12.29-4.257-16.714-8.845-18.899-10.888
					c-0.055,0.812-0.093,1.63-0.093,2.456c0,3.173,0.417,6.249,1.19,9.179C267.001,395.934,282.911,403.916,308.695,401.278z"/>
			</g>
			
				<use xlink:href="#XMLID_6_"  style="overflow:visible;fill:none;stroke:#263238;stroke-width:1.1133;stroke-linecap:round;stroke-linejoin:round;stroke-miterlimit:10;"/>
		</g>
	</g>
</g>
<g id="Plants">
	<g style="display:none;">
		<g style="display:inline;">
			<g>
				<path style="fill:none;stroke:#263238;stroke-linecap:round;stroke-linejoin:round;stroke-miterlimit:10;" d="M100.148,342.69
					l69.017-58.207c2.563-2.162,6.001-2.362,8.741-0.509l86.963,58.792l43.655-29.756c2.264-1.543,5.061-1.637,7.4-0.247
					l50.315,29.898"/>
				<path style="fill:none;stroke:#263238;stroke-linecap:round;stroke-linejoin:round;stroke-miterlimit:10;" d="M346.223,330.648
					l16.994-6.818c1.972-0.791,4.141-0.62,6,0.474l31.489,18.526"/>
				<path style="fill:none;stroke:#263238;stroke-linecap:round;stroke-linejoin:round;stroke-miterlimit:10;" d="M132.948,314.833
					l-7.578-4.971c-2.609-1.609-5.784-1.393-8.209,0.559L77.058,342.69"/>
			</g>
			
				<line style="fill:none;stroke:#263238;stroke-linecap:round;stroke-linejoin:round;stroke-miterlimit:10;" x1="71.071" y1="342.766" x2="416.138" y2="342.766"/>
		</g>
		<g style="display:inline;">
			
				<line style="fill:none;stroke:#263238;stroke-linecap:round;stroke-linejoin:round;stroke-miterlimit:10;" x1="291.242" y1="329.852" x2="292.734" y2="328.852"/>
			
				<line style="fill:none;stroke:#263238;stroke-linecap:round;stroke-linejoin:round;stroke-miterlimit:10;" x1="271.881" y1="342.828" x2="289.271" y2="331.173"/>
		</g>
		<g style="display:inline;">
			
				<line style="fill:none;stroke:#263238;stroke-linecap:round;stroke-linejoin:round;stroke-miterlimit:10;" x1="148.097" y1="309.489" x2="151.101" y2="306.92"/>
			
				<line style="fill:none;stroke:#263238;stroke-linecap:round;stroke-linejoin:round;stroke-miterlimit:10;" x1="109.108" y1="342.828" x2="144.126" y2="312.884"/>
		</g>
	</g>
	<g>
		<path style="fill:#C6FF00;" d="M360.731,320.884c0,0-2.448-7.957-9.589-10.813c-4.963-1.985-10.676-1.466-15.817-0.571
			c-9.581,1.666-17.942,5.476-27.026,8.732c0,0,3.876-1.428,19.789,6.324c5.861,2.856,12.564,5.071,19.266,4.921
			C352.739,329.357,360.987,327.824,360.731,320.884z"/>
		<path style="fill:#C6FF00;" d="M361.594,297.509c0,0-0.046-8.324-6.057-13.122c-4.178-3.334-9.797-4.487-14.978-5.116
			c-9.654-1.172-18.759,0.059-28.396,0.553c0,0,4.124-0.248,17.119,11.771c4.786,4.427,10.563,8.484,17.023,10.277
			C351.495,303.312,359.835,304.227,361.594,297.509z"/>
		<path style="fill:#C6FF00;" d="M378.044,328.42c0,0-6.493-5.209-6.515-12.9c-0.015-5.345,2.574-10.464,5.301-14.913
			c5.082-8.292,11.705-14.659,18.082-21.902c0,0-2.757,3.077-1.418,20.727c0.493,6.501,0.081,13.548-2.529,19.723
			C388.867,324.115,384.4,331.217,378.044,328.42z"/>
		<path style="fill:#C6FF00;" d="M401.039,341.204c0,0-0.917-8.274,4.499-13.734c3.764-3.795,9.212-5.59,14.286-6.814
			c9.454-2.28,18.64-2.111,28.269-2.735c0,0-4.125,0.231-15.643,13.672c-4.242,4.951-9.511,9.649-15.72,12.176
			C411.741,345.8,403.563,347.673,401.039,341.204z"/>
		<path style="fill:#C6FF00;" d="M399.532,311.712c0,0-8.247-1.134-12.216-7.721c-2.759-4.578-3.167-10.3-3.113-15.518
			c0.101-9.724,2.513-18.59,4.264-28.079c0,0-0.785,4.056,9.43,18.512c3.762,5.325,7.029,11.582,7.961,18.221
			C406.606,302.46,406.422,310.848,399.532,311.712z"/>
		<path style="fill:#C6FF00;" d="M423.267,296.901c0,0,5.931,5.841,13.572,4.965c5.31-0.609,10.092-3.778,14.193-7.006
			c7.641-6.015,13.192-13.337,19.641-20.515c0,0-2.734,3.097-20.42,3.828c-6.514,0.27-13.465,1.501-19.292,4.815
			C426.278,285.651,419.746,290.916,423.267,296.901z"/>
		<path style="fill:#C6FF00;" d="M416.398,291.127c0,0,8.283,0.832,13.687-4.64c3.756-3.803,5.495-9.27,6.667-14.355
			c2.183-9.477,1.918-18.66,2.443-28.296c0,0-0.189,4.127-13.51,15.782c-4.907,4.293-9.55,9.61-12.014,15.845
			C411.692,280.473,409.903,288.67,416.398,291.127z"/>
		
			<polyline style="fill:none;stroke:#263238;stroke-width:1.1133;stroke-linecap:round;stroke-linejoin:round;stroke-miterlimit:10;" points="
			386.826,371.74 372.531,336.551 356.036,295.864 		"/>
		
			<polyline style="fill:none;stroke:#263238;stroke-width:1.1133;stroke-linecap:round;stroke-linejoin:round;stroke-miterlimit:10;" points="
			390.126,365.692 404.421,316.757 419.816,286.517 		"/>
		
			<line style="fill:none;stroke:#263238;stroke-width:1.1133;stroke-linecap:round;stroke-linejoin:round;stroke-miterlimit:10;" x1="395.624" y1="346.448" x2="409.919" y2="338.2"/>
		
			<line style="fill:none;stroke:#263238;stroke-width:1.1133;stroke-linecap:round;stroke-linejoin:round;stroke-miterlimit:10;" x1="404.421" y1="316.757" x2="397.273" y2="300.812"/>
		
			<line style="fill:none;stroke:#263238;stroke-width:1.1133;stroke-linecap:round;stroke-linejoin:round;stroke-miterlimit:10;" x1="413.366" y1="300.891" x2="430.813" y2="293.115"/>
		
			<line style="fill:none;stroke:#263238;stroke-width:1.1133;stroke-linecap:round;stroke-linejoin:round;stroke-miterlimit:10;" x1="375.28" y1="343.149" x2="381.328" y2="318.956"/>
		
			<line style="fill:none;stroke:#263238;stroke-width:1.1133;stroke-linecap:round;stroke-linejoin:round;stroke-miterlimit:10;" x1="367.259" y1="324.761" x2="353.287" y2="317.307"/>
		
			<path style="fill:#263238;stroke:#263238;stroke-width:1.1133;stroke-linecap:round;stroke-linejoin:round;stroke-miterlimit:10;" d="
			M394.163,389.334h-11.924c-4.021,0-7.474-2.859-8.223-6.81l-4.234-22.331h36.838l-4.234,22.331
			C401.637,386.475,398.184,389.334,394.163,389.334z"/>
	</g>
</g>
<g id="Text">
	<g>
		<g>
			<path style="fill:#263238;" d="M58.663,253.199c0-2.77,1.276-4.807,4.155-4.807c2.933,0,4.21,2.037,4.21,4.807v9.723
				c0,2.77-1.276,4.807-4.21,4.807c-2.879,0-4.155-2.037-4.155-4.807V253.199z M59.913,263.004c0,2.064,0.815,3.585,2.906,3.585
				c2.119,0,2.96-1.521,2.96-3.585v-9.886c0-2.064-0.841-3.586-2.96-3.586c-2.091,0-2.906,1.521-2.906,3.586V263.004z"/>
			<path style="fill:#263238;" d="M69.014,253.199c0-2.77,1.276-4.807,4.155-4.807c2.933,0,4.21,2.037,4.21,4.807v9.723
				c0,2.77-1.276,4.807-4.21,4.807c-2.879,0-4.155-2.037-4.155-4.807V253.199z M70.263,263.004c0,2.064,0.815,3.585,2.906,3.585
				c2.119,0,2.96-1.521,2.96-3.585v-9.886c0-2.064-0.841-3.586-2.96-3.586c-2.091,0-2.906,1.521-2.906,3.586V263.004z"/>
			<path style="fill:#263238;" d="M83.382,248.554c2.933,0,4.074,1.847,4.074,4.617v2.064c0,3.015-1.386,4.509-4.4,4.509h-2.362
				v7.822h-1.25v-19.012H83.382z M83.056,258.603c2.2,0,3.151-0.978,3.151-3.286v-2.227c0-2.064-0.705-3.395-2.824-3.395h-2.689
				v8.909H83.056z"/>
			<path style="fill:#263238;" d="M97.345,253.145v0.407H96.15v-0.489c0-2.01-0.76-3.531-2.824-3.531s-2.824,1.494-2.824,3.504
				c0,4.617,6.872,4.699,6.872,9.941c0,2.743-1.195,4.753-4.102,4.753c-2.906,0-4.101-2.01-4.101-4.753v-0.978h1.195v1.059
				c0,2.037,0.787,3.504,2.879,3.504c2.091,0,2.879-1.467,2.879-3.504c0-4.563-6.872-4.644-6.872-9.94
				c0-2.852,1.25-4.699,4.048-4.726C96.178,248.391,97.345,250.401,97.345,253.145z"/>
			<path style="fill:#263238;" d="M100.471,265.176v2.39h-1.223v-2.39H100.471z"/>
			<path style="fill:#263238;" d="M103.868,265.176v2.39h-1.223v-2.39H103.868z"/>
			<path style="fill:#263238;" d="M107.263,265.176v2.39h-1.223v-2.39H107.263z"/>
		</g>
		<g>
			<path style="fill:#263238;" d="M62.683,276.216c2.933,0,4.074,1.847,4.074,4.617v2.064c0,3.015-1.385,4.509-4.4,4.509h-2.363
				v7.822h-1.25v-19.012H62.683z M62.357,286.265c2.2,0,3.15-0.978,3.15-3.286v-2.227c0-2.064-0.705-3.395-2.824-3.395h-2.689v8.909
				H62.357z"/>
			<path style="fill:#263238;" d="M70.1,291.018l-0.95,4.21h-1.141l4.155-19.039h1.821l4.236,19.039h-1.25l-0.95-4.21H70.1z
				 M70.29,289.932h5.541l-2.798-12.303L70.29,289.932z"/>
			<path style="fill:#263238;" d="M88.219,280.86v1.412h-1.195v-1.493c0-2.037-0.788-3.586-2.879-3.586
				c-2.091,0-2.879,1.548-2.879,3.586v9.886c0,2.036,0.788,3.558,2.879,3.558c2.091,0,2.879-1.521,2.879-3.558v-4.101h-2.526v-1.141
				h3.721v5.16c0,2.743-1.195,4.807-4.102,4.807c-2.906,0-4.101-2.064-4.101-4.807v-9.723c0-2.743,1.195-4.807,4.101-4.807
				C87.024,276.053,88.219,278.117,88.219,280.86z"/>
			<path style="fill:#263238;" d="M96.749,285.016v1.141h-5.188v7.93h6.246v1.141h-7.496v-19.012h7.496v1.141h-6.246v7.659H96.749z"
				/>
			<path style="fill:#263238;" d="M105.197,295.228h-1.14v-19.012h1.63l5.703,16.051v-16.051h1.141v19.012h-1.385l-5.948-16.948
				V295.228z"/>
			<path style="fill:#263238;" d="M114.598,280.86c0-2.77,1.276-4.807,4.155-4.807c2.933,0,4.21,2.037,4.21,4.807v9.723
				c0,2.77-1.276,4.807-4.21,4.807c-2.879,0-4.155-2.037-4.155-4.807V280.86z M115.847,290.665c0,2.064,0.815,3.585,2.906,3.585
				c2.119,0,2.96-1.521,2.96-3.585v-9.886c0-2.064-0.841-3.586-2.96-3.586c-2.091,0-2.906,1.521-2.906,3.586V290.665z"/>
			<path style="fill:#263238;" d="M128.233,295.228v-17.871h-3.856v-1.141h8.989v1.141h-3.884v17.871H128.233z"/>
			<path style="fill:#263238;" d="M145.293,285.478v1.141h-4.915v8.61h-1.25v-19.012h7.224v1.141h-5.975v8.121H145.293z"/>
			<path style="fill:#263238;" d="M148.174,280.86c0-2.77,1.276-4.807,4.155-4.807c2.933,0,4.21,2.037,4.21,4.807v9.723
				c0,2.77-1.276,4.807-4.21,4.807c-2.879,0-4.155-2.037-4.155-4.807V280.86z M149.423,290.665c0,2.064,0.815,3.585,2.906,3.585
				c2.119,0,2.96-1.521,2.96-3.585v-9.886c0-2.064-0.841-3.586-2.96-3.586c-2.091,0-2.906,1.521-2.906,3.586V290.665z"/>
			<path style="fill:#263238;" d="M159.801,290.638c0,2.037,0.762,3.612,2.853,3.612s2.851-1.575,2.851-3.612v-14.422h1.168v14.368
				c0,2.716-1.141,4.807-4.047,4.807c-2.906,0-4.075-2.092-4.075-4.807v-14.368h1.25V290.638z"/>
			<path style="fill:#263238;" d="M169.96,295.228h-1.141v-19.012h1.63l5.703,16.051v-16.051h1.141v19.012h-1.385l-5.948-16.948
				V295.228z"/>
			<path style="fill:#263238;" d="M183.625,276.216c2.934,0,4.21,1.928,4.21,4.726v9.56c0,2.797-1.276,4.726-4.21,4.726h-4.183
				v-19.012H183.625z M183.597,294.087c2.119,0,2.988-1.439,2.988-3.531v-9.669c0-2.092-0.896-3.531-2.988-3.531h-2.906v16.731
				H183.597z"/>
		</g>
	</g>
</g>
<g id="Character">
	<g>
		<g>
			<g>
				<g>
					<defs>
						<path id="XMLID_5_" d="M231.153,342.281c-22.266,0.001-35.641-19.753-40.393-37.125l-0.161-0.609
							c-0.908-3.494,1.188-7.062,4.682-7.969c3.495-0.903,7.061,1.188,7.969,4.681l0.119,0.453
							c3.617,13.221,13.446,28.331,29.213,27.459c6.288-0.354,11.352-2.826,15.48-7.555c8.652-9.912,12.519-31.49,11.656-42.367
							c-0.229-2.879,1.92-5.397,4.798-5.625c2.899-0.228,5.397,1.92,5.625,4.797c0.962,12.105-0.317,38.141-12.232,51.79
							c-6.473,7.415-14.746,11.455-24.592,12.01C232.586,342.261,231.864,342.281,231.153,342.281z"/>
					</defs>
					<use xlink:href="#XMLID_5_"  style="overflow:visible;fill:#FFFFFF;"/>
					<clipPath id="XMLID_00000104703093222314225370000017641060823896130722_">
						<use xlink:href="#XMLID_5_"  style="overflow:visible;"/>
					</clipPath>
					<path style="clip-path:url(#XMLID_00000104703093222314225370000017641060823896130722_);fill:#C6FF00;" d="M264.514,273.623
						c-2.878,0.228-5.027,2.747-4.798,5.625c0.421,5.308-0.287,13.165-2.125,20.97c2.259-0.11,4.853,0.141,7.766,1.012
						c-0.423,5.341-2.103,13.19-7.632,20.868c-9.711,13.488-24.279,17.805-35.609,16.186c-5.065-0.724-10.881-3.388-15.768-6.113
						c6.462,6.05,14.718,10.11,24.805,10.11c0.711,0,1.433-0.021,2.162-0.061c9.846-0.555,18.12-4.595,24.592-12.01
						c11.915-13.649,13.194-39.685,12.232-51.79C269.911,275.543,267.413,273.394,264.514,273.623z"/>
					<path style="opacity:0.5;clip-path:url(#XMLID_00000104703093222314225370000017641060823896130722_);fill:#FFFFFF;" d="
						M264.514,273.623c-2.878,0.228-5.027,2.747-4.798,5.625c0.421,5.308-0.287,13.165-2.125,20.97
						c2.259-0.11,4.853,0.141,7.766,1.012c-0.423,5.341-2.103,13.19-7.632,20.868c-9.711,13.488-24.279,17.805-35.609,16.186
						c-5.065-0.724-10.881-3.388-15.768-6.113c6.462,6.05,14.718,10.11,24.805,10.11c0.711,0,1.433-0.021,2.162-0.061
						c9.846-0.555,18.12-4.595,24.592-12.01c11.915-13.649,13.194-39.685,12.232-51.79
						C269.911,275.543,267.413,273.394,264.514,273.623z"/>
					
						<use xlink:href="#XMLID_5_"  style="overflow:visible;fill:none;stroke:#263238;stroke-width:1.1133;stroke-linecap:round;stroke-linejoin:round;stroke-miterlimit:10;"/>
				</g>
				<g>
					
						<path style="fill:#C6FF00;stroke:#263238;stroke-width:1.1133;stroke-linecap:round;stroke-linejoin:round;stroke-miterlimit:10;" d="
						M218.311,328.747c0.525-2.449-5.336,1.385-10.245,4.952c1.817,1.526,3.766,2.892,5.843,4.066
						C215.662,334.921,217.804,331.114,218.311,328.747z"/>
					
						<path style="fill:#C6FF00;stroke:#263238;stroke-width:1.1133;stroke-linecap:round;stroke-linejoin:round;stroke-miterlimit:10;" d="
						M231.153,342.281c0.711,0,1.433-0.021,2.162-0.061c2.183-0.123,4.285-0.427,6.311-0.892c-2.758-3.602-6.554-8.354-7.651-8.719
						c-1.248-0.416-3.658,5.715-4.993,9.433C228.337,342.198,229.726,342.281,231.153,342.281z"/>
					
						<path style="fill:#C6FF00;stroke:#263238;stroke-width:1.1133;stroke-linecap:round;stroke-linejoin:round;stroke-miterlimit:10;" d="
						M203.367,301.712l-0.119-0.453c-0.908-3.493-4.474-5.584-7.969-4.681c-3.493,0.907-5.59,4.476-4.682,7.969l0.161,0.609
						c1.578,5.767,4.112,11.794,7.6,17.276l11.91-5.671C207.064,312.14,204.756,306.788,203.367,301.712z"/>
					
						<path style="fill:#C6FF00;stroke:#263238;stroke-width:1.1133;stroke-linecap:round;stroke-linejoin:round;stroke-miterlimit:10;" d="
						M257.908,330.21c0.91-1.043,1.751-2.165,2.541-3.341c-3.775-1.291-9.439-3.066-11.541-2.875
						c-2.492,0.227,0.889,8.225,2.635,12.01C253.824,334.382,255.949,332.453,257.908,330.21z"/>
					
						<path style="fill:#C6FF00;stroke:#263238;stroke-width:1.1133;stroke-linecap:round;stroke-linejoin:round;stroke-miterlimit:10;" d="
						M258.116,308.844c-0.396,0.793,4.494,4.36,7.794,6.648c1.05-3.089,1.879-6.301,2.521-9.522
						C264.428,306.766,258.507,308.063,258.116,308.844z"/>
					
						<path style="fill:#C6FF00;stroke:#263238;stroke-width:1.1133;stroke-linecap:round;stroke-linejoin:round;stroke-miterlimit:10;" d="
						M270.051,294.051c0.222-2.85,0.326-5.572,0.339-8.075c-3.438,1.898-7.521,4.514-7.521,6.234
						C262.869,293.873,266.69,294.139,270.051,294.051z"/>
				</g>
			</g>
			<g>
				<g>
					<defs>
						<path id="XMLID_4_" d="M216.208,216.681c0,0-9.705,28.12-4.479,50.018c5.226,21.898,24.387,29.115,24.387,29.115
							s-14.184,4.977-10.949,12.691c3.235,7.714,15.428,2.737,19.41,0.249c3.981-2.488,8.958-9.954,9.705-14.931
							c0.746-4.977,0.498-7.714,0.498-7.714s16.175-1.742,27.124-10.7c0,0,9.705,7.714,16.673,6.221
							c6.968-1.493,16.921-13.935,15.926-25.133c-0.995-11.198-7.465-11.198-11.447-9.456c-3.982,1.742-5.475,3.484-5.475,3.484
							s5.724-6.968,0-16.673c-5.723-9.705-15.926-10.452-15.926-10.452s-2.986-15.926-11.945-21.898
							C260.752,195.529,228.899,189.308,216.208,216.681z"/>
					</defs>
					<use xlink:href="#XMLID_4_"  style="overflow:visible;fill:#FFFFFF;"/>
					<clipPath id="XMLID_00000126296303822648370450000015588671874552855948_">
						<use xlink:href="#XMLID_4_"  style="overflow:visible;"/>
					</clipPath>
					<path style="clip-path:url(#XMLID_00000126296303822648370450000015588671874552855948_);fill:#C6FF00;" d="M290.143,226.354
						c-7.051,11.742-21.354,25.246-43.858,27.22c-19.803,1.737-30.904-2.163-36.02-4.871c0.69-16.779,5.944-32.021,5.944-32.021
						c12.691-27.373,44.543-21.152,53.502-15.18c8.958,5.972,11.945,21.898,11.945,21.898S285.711,223.702,290.143,226.354z
						 M303.055,247.04c-3.982,1.742-5.475,3.484-5.475,3.484s1.729-2.121,2.333-5.64c-13.451,6.694-12.401,21.018-14.075,21.018
						c-2.055,0-3.082-7.192-3.082-7.192s-2.568,10.274-17.979,17.465s-32.876,1.541-32.876,1.541s3.596,8.219-5.651,7.192
						c-3.124-0.347-5.471-1.402-7.229-2.642c7.468,9.913,17.094,13.547,17.094,13.547s-14.184,4.977-10.949,12.691
						c3.235,7.714,15.428,2.737,19.41,0.249c3.981-2.488,8.958-9.954,9.705-14.931c0.746-4.977,0.498-7.714,0.498-7.714
						s16.175-1.742,27.124-10.7c0,0,9.705,7.714,16.673,6.221c6.968-1.493,16.921-13.935,15.926-25.133
						C313.507,245.298,307.037,245.298,303.055,247.04z"/>
					<path style="opacity:0.5;clip-path:url(#XMLID_00000126296303822648370450000015588671874552855948_);fill:#FFFFFF;" d="
						M290.143,226.354c-7.051,11.742-21.354,25.246-43.858,27.22c-19.803,1.737-30.904-2.163-36.02-4.871
						c0.69-16.779,5.944-32.021,5.944-32.021c12.691-27.373,44.543-21.152,53.502-15.18c8.958,5.972,11.945,21.898,11.945,21.898
						S285.711,223.702,290.143,226.354z M303.055,247.04c-3.982,1.742-5.475,3.484-5.475,3.484s1.729-2.121,2.333-5.64
						c-13.451,6.694-12.401,21.018-14.075,21.018c-2.055,0-3.082-7.192-3.082-7.192s-2.568,10.274-17.979,17.465
						s-32.876,1.541-32.876,1.541s3.596,8.219-5.651,7.192c-3.124-0.347-5.471-1.402-7.229-2.642
						c7.468,9.913,17.094,13.547,17.094,13.547s-14.184,4.977-10.949,12.691c3.235,7.714,15.428,2.737,19.41,0.249
						c3.981-2.488,8.958-9.954,9.705-14.931c0.746-4.977,0.498-7.714,0.498-7.714s16.175-1.742,27.124-10.7
						c0,0,9.705,7.714,16.673,6.221c6.968-1.493,16.921-13.935,15.926-25.133C313.507,245.298,307.037,245.298,303.055,247.04z"/>
					
						<path style="clip-path:url(#XMLID_00000126296303822648370450000015588671874552855948_);fill:none;stroke:#263238;stroke-width:1.1133;stroke-linecap:round;stroke-linejoin:round;stroke-miterlimit:10;" d="
						M254.779,286.109c0,0-16.565,1.348-28.15-12.911"/>
					
						<use xlink:href="#XMLID_4_"  style="overflow:visible;fill:none;stroke:#263238;stroke-width:1.1133;stroke-linecap:round;stroke-linejoin:round;stroke-miterlimit:10;"/>
				</g>
				
					<path style="fill:none;stroke:#263238;stroke-width:1.1133;stroke-linecap:round;stroke-linejoin:round;stroke-miterlimit:10;" d="
					M297.581,250.524c0,0-5.226,3.484-7.714,14.184"/>
				<g>
					<g>
						
							<path style="fill:#FFFFFF;stroke:#263238;stroke-width:1.1133;stroke-linecap:round;stroke-linejoin:round;stroke-miterlimit:10;" d="
							M307.172,255.1c-0.615,1.823-2.28,2.908-3.719,2.422c-1.439-0.485-2.107-2.357-1.492-4.18c0.615-1.823,2.28-2.908,3.719-2.422
							C307.119,251.405,307.788,253.276,307.172,255.1z"/>
						
							<path style="fill:#FFFFFF;stroke:#263238;stroke-width:1.1133;stroke-linecap:round;stroke-linejoin:round;stroke-miterlimit:10;" d="
							M312.32,258.338c-0.615,1.823-2.28,2.908-3.719,2.422c-1.439-0.485-2.107-2.357-1.492-4.18
							c0.615-1.823,2.28-2.908,3.719-2.422S312.935,256.515,312.32,258.338z"/>
						
							<path style="fill:#FFFFFF;stroke:#263238;stroke-width:1.1133;stroke-linecap:round;stroke-linejoin:round;stroke-miterlimit:10;" d="
							M313.417,263.187c-0.447,1.324-1.656,2.112-2.701,1.759c-1.045-0.353-1.53-1.712-1.084-3.036
							c0.447-1.324,1.656-2.112,2.701-1.759C313.379,260.504,313.864,261.863,313.417,263.187z"/>
					</g>
					
						<path style="fill:#FFFFFF;stroke:#263238;stroke-width:1.1133;stroke-linecap:round;stroke-linejoin:round;stroke-miterlimit:10;" d="
						M306.849,269.849c-1.798,3.246-5.4,4.69-8.044,3.225c-2.645-1.465-3.332-5.284-1.534-8.53c1.798-3.246,5.4-4.69,8.045-3.225
						C307.96,262.784,308.647,266.603,306.849,269.849z"/>
				</g>
				<g>
					
						<path style="fill:none;stroke:#263238;stroke-width:1.1133;stroke-linecap:round;stroke-linejoin:round;stroke-miterlimit:10;" d="
						M236.116,295.814c0,0,4.479,2.488,10.7,0.746"/>
					
						<path style="fill:none;stroke:#263238;stroke-width:1.1133;stroke-linecap:round;stroke-linejoin:round;stroke-miterlimit:10;" d="
						M225.167,308.505c0,0,0.995-4.23,7.216-7.217"/>
					
						<path style="fill:none;stroke:#263238;stroke-width:1.1133;stroke-linecap:round;stroke-linejoin:round;stroke-miterlimit:10;" d="
						M231.388,312.238c0,0,2.488-5.972,6.719-8.71"/>
				</g>
			</g>
		</g>
		<g>
			<path style="fill:#263238;" d="M133.257,243.395c-2.146-1.716-3.219-4.076-3.219-7.081v-23.713H68.88
				c-3.291,0-5.955-1.108-7.993-3.326c-2.039-2.216-3.058-4.828-3.058-7.832c0-2.36,0.679-4.577,2.039-6.652l58.582-92.058
				c4.362-6.795,10.193-10.193,17.489-10.193c4.292,0,7.868,1.253,10.729,3.756c2.86,2.505,4.292,6.223,4.292,11.159v89.483h15.558
				c2.503,0,4.434,0.77,5.794,2.307c1.358,1.539,2.038,3.38,2.038,5.526c0,2.146-0.68,3.989-2.038,5.526
				c-1.36,1.539-3.291,2.307-5.794,2.307h-15.664v23.713c0,3.004-1.038,5.364-3.112,7.081c-2.076,1.717-4.471,2.575-7.189,2.575
				C137.833,245.97,135.402,245.112,133.257,243.395z M130.038,196.937v-82.402l-51.286,82.402H130.038z"/>
			<path style="fill:#263238;" d="M218.126,243.878c-6.367-2.896-11.534-6.759-15.504-11.588c-3.97-4.828-7.226-10.711-9.764-17.65
				c-2.54-6.937-4.31-14.055-5.311-21.351c-1.003-7.296-1.502-15.271-1.502-23.927c0-52.717,17.988-79.075,53.969-79.075
				c35.907,0,53.862,26.359,53.862,79.075c0,8.584-0.483,16.523-1.448,23.82c-0.967,7.296-2.72,14.414-5.258,21.351
				c-2.54,6.939-5.794,12.822-9.764,17.65c-3.97,4.828-9.138,8.709-15.504,11.641c-6.367,2.932-13.663,4.399-21.888,4.399
				C231.788,248.223,224.492,246.775,218.126,243.878z M250.69,228.749c3.183-1.395,5.864-3.218,8.047-5.472
				c2.181-2.253,4.077-5.06,5.687-8.423c1.609-3.362,2.879-6.76,3.809-10.193c0.928-3.433,1.663-7.313,2.199-11.641
				c0.536-4.327,0.894-8.296,1.073-11.909c0.177-3.611,0.268-7.527,0.268-11.749c0-4.434-0.091-8.53-0.268-12.285
				c-0.18-3.755-0.555-7.795-1.127-12.124c-0.573-4.327-1.325-8.208-2.253-11.641c-0.931-3.434-2.199-6.795-3.808-10.085
				c-1.609-3.29-3.505-6.044-5.687-8.262c-2.183-2.216-4.847-3.986-7.994-5.311c-3.148-1.323-6.688-1.985-10.622-1.985
				c-3.935,0-7.475,0.662-10.622,1.985c-3.148,1.325-5.794,3.076-7.939,5.257c-2.147,2.183-4.043,4.919-5.687,8.209
				c-1.646,3.291-2.916,6.652-3.81,10.085c-0.895,3.433-1.628,7.333-2.199,11.695c-0.573,4.364-0.949,8.423-1.127,12.178
				c-0.18,3.756-0.268,7.851-0.268,12.285c0,4.221,0.088,8.154,0.268,11.802c0.178,3.648,0.536,7.636,1.073,11.963
				c0.536,4.329,1.268,8.208,2.199,11.641c0.929,3.434,2.2,6.832,3.809,10.193c1.61,3.363,3.487,6.152,5.632,8.368
				c2.146,2.218,4.81,4.024,7.994,5.418c3.182,1.395,6.741,2.093,10.675,2.093C243.948,230.842,247.507,230.145,250.69,228.749z"/>
			<path style="fill:#263238;" d="M386.578,243.395c-2.146-1.716-3.219-4.076-3.219-7.081v-23.713h-61.157
				c-3.292,0-5.955-1.108-7.994-3.326c-2.039-2.216-3.058-4.828-3.058-7.832c0-2.36,0.679-4.577,2.038-6.652l58.583-92.058
				c4.362-6.795,10.193-10.193,17.489-10.193c4.291,0,7.867,1.253,10.729,3.756c2.86,2.505,4.292,6.223,4.292,11.159v89.483h15.557
				c2.503,0,4.435,0.77,5.794,2.307c1.359,1.539,2.039,3.38,2.039,5.526c0,2.146-0.68,3.989-2.039,5.526
				c-1.359,1.539-3.291,2.307-5.794,2.307h-15.665v23.713c0,3.004-1.037,5.364-3.111,7.081c-2.076,1.717-4.471,2.575-7.189,2.575
				C391.155,245.97,388.724,245.112,386.578,243.395z M383.359,196.937v-82.402l-51.287,82.402H383.359z"/>
		</g>
		<g>
			<g>
				<g>
					<defs>
						<path id="XMLID_3_" d="M196.052,202.496c0,0-10.452,14.682-11.945,29.613c-1.493,14.931,0.249,24.885,4.728,28.617
							c4.479,3.733,8.958,2.24,11.447-1.244c2.489-3.484-1.493-15.677-1.493-15.677s4.231-11.696,10.701-19.908
							c6.47-8.212,7.714-9.456,7.714-9.456S206.005,201.75,196.052,202.496z"/>
					</defs>
					<use xlink:href="#XMLID_3_"  style="overflow:visible;fill:#FFFFFF;"/>
					<clipPath id="XMLID_00000117658648927864463350000016125805573180514751_">
						<use xlink:href="#XMLID_3_"  style="overflow:visible;"/>
					</clipPath>
					<path style="clip-path:url(#XMLID_00000117658648927864463350000016125805573180514751_);fill:#C6FF00;" d="M196.052,202.496
						c0,0-3.05,4.289-6.09,10.583c4.995,2.015,12.75,6.105,17.668,13.356c0.597-0.87,1.217-1.722,1.86-2.538
						c6.47-8.212,7.714-9.456,7.714-9.456S206.005,201.75,196.052,202.496z"/>
					<path style="opacity:0.5;clip-path:url(#XMLID_00000117658648927864463350000016125805573180514751_);fill:#FFFFFF;" d="
						M196.052,202.496c0,0-3.05,4.289-6.09,10.583c4.995,2.015,12.75,6.105,17.668,13.356c0.597-0.87,1.217-1.722,1.86-2.538
						c6.47-8.212,7.714-9.456,7.714-9.456S206.005,201.75,196.052,202.496z"/>
					
						<use xlink:href="#XMLID_3_"  style="overflow:visible;fill:none;stroke:#263238;stroke-width:1.1133;stroke-linecap:round;stroke-linejoin:round;stroke-miterlimit:10;"/>
				</g>
				
					<path style="fill:none;stroke:#263238;stroke-width:1.1133;stroke-linecap:round;stroke-linejoin:round;stroke-miterlimit:10;" d="
					M188.835,260.727c0,0-1.742-3.982-1.742-10.203"/>
				
					<path style="fill:none;stroke:#263238;stroke-width:1.1133;stroke-linecap:round;stroke-linejoin:round;stroke-miterlimit:10;" d="
					M195.554,262.22c0,0-2.488-4.23-2.737-11.447"/>
				<g>
					
						<path style="fill:#C6FF00;stroke:#263238;stroke-width:1.1133;stroke-linecap:round;stroke-linejoin:round;stroke-miterlimit:10;" d="
						M199.287,229.123c0-2.624-4.998-7.744-11.951-9.96c-0.9,2.374-1.704,4.887-2.304,7.465c1.875,0.357,5.235,1.136,7.785,2.496
						C196.549,231.114,199.287,232.109,199.287,229.123z"/>
					
						<path style="fill:#C6FF00;stroke:#263238;stroke-width:1.1133;stroke-linecap:round;stroke-linejoin:round;stroke-miterlimit:10;" d="
						M195.444,203.391c-0.871,1.313-2.575,4.004-4.416,7.556c1.838,0.483,3.877,1.255,6.019,2.499
						c7.714,4.479,9.207,4.977,6.719-1.493C202.216,207.924,198.642,205.151,195.444,203.391z"/>
				</g>
			</g>
			<g>
				<g>
					<defs>
						<path id="XMLID_2_" d="M277.901,195.249c0,0,11.841,13.586,14.792,28.298c2.95,14.712,2.193,24.789-1.898,28.943
							c-4.091,4.154-8.695,3.107-11.514-0.116c-2.818-3.223-0.052-15.748-0.052-15.748s-5.357-11.224-12.601-18.762
							c-7.244-7.538-8.605-8.654-8.605-8.654S267.922,195.482,277.901,195.249z"/>
					</defs>
					<use xlink:href="#XMLID_2_"  style="overflow:visible;fill:#FFFFFF;"/>
					<clipPath id="XMLID_00000052795579981565711210000016784481755729180569_">
						<use xlink:href="#XMLID_2_"  style="overflow:visible;"/>
					</clipPath>
					<path style="clip-path:url(#XMLID_00000052795579981565711210000016784481755729180569_);fill:#C6FF00;" d="M277.901,195.248
						c-9.979,0.233-19.878,13.962-19.878,13.962s1.36,1.116,8.604,8.654c1.348,1.403,2.631,2.934,3.826,4.497
						c2.534-4.227,7.521-10.883,15.662-15.297C282.096,200.064,277.901,195.248,277.901,195.248z"/>
					<path style="opacity:0.5;clip-path:url(#XMLID_00000052795579981565711210000016784481755729180569_);fill:#FFFFFF;" d="
						M277.901,195.248c-9.979,0.233-19.878,13.962-19.878,13.962s1.36,1.116,8.604,8.654c1.348,1.403,2.631,2.934,3.826,4.497
						c2.534-4.227,7.521-10.883,15.662-15.297C282.096,200.064,277.901,195.248,277.901,195.248z"/>
					
						<use xlink:href="#XMLID_2_"  style="overflow:visible;fill:none;stroke:#263238;stroke-width:1.1133;stroke-linecap:round;stroke-linejoin:round;stroke-miterlimit:10;"/>
				</g>
				
					<path style="fill:none;stroke:#263238;stroke-width:1.1133;stroke-linecap:round;stroke-linejoin:round;stroke-miterlimit:10;" d="
					M290.794,252.49c0,0,1.343-4.133,0.733-10.324"/>
				
					<path style="fill:none;stroke:#263238;stroke-width:1.1133;stroke-linecap:round;stroke-linejoin:round;stroke-miterlimit:10;" d="
					M284.254,254.635c0,0,2.062-4.454,1.601-11.66"/>
				<g>
					
						<path style="fill:#C6FF00;stroke:#263238;stroke-width:1.1133;stroke-linecap:round;stroke-linejoin:round;stroke-miterlimit:10;" d="
						M277.293,222.064c-0.257-2.612,4.214-8.197,10.916-11.085c1.129,2.274,2.176,4.696,3.025,7.203
						c-1.831,0.54-5.098,1.644-7.502,3.247C280.212,223.777,277.586,225.036,277.293,222.064z"/>
					
						<path style="fill:#C6FF00;stroke:#263238;stroke-width:1.1133;stroke-linecap:round;stroke-linejoin:round;stroke-miterlimit:10;" d="
						M278.593,196.079c0.995,1.222,2.956,3.732,5.135,7.087c-1.782,0.661-3.735,1.629-5.745,3.077
						c-7.238,5.214-8.675,5.856-6.833-0.827C272.298,201.255,275.583,198.145,278.593,196.079z"/>
				</g>
			</g>
			<g>
				<g>
					<g>
						<defs>
							<path id="XMLID_1_" d="M195.072,189.797c0,0-3.079,10.394-1.925,14.628c1.155,4.234,6.544,0.385,11.933,5.004
								c5.389,4.619,10.385,12.929,30.787,14.468c20.402,1.54,32.729-9.464,36.964-15.623c4.234-6.159,3.849-13.473,11.163-13.858
								c7.314-0.385,1.155-14.628-1.155-16.938c0,0,14.243-21.172,14.243-26.561c0-5.389-13.473-4.234-30.026,0.77
								c0,0-12.318-6.544-34.645-2.695c-22.327,3.849-28.871,10.394-28.871,10.394s-27.716,3.464-29.641,6.929
								C171.975,169.779,177.749,184.407,195.072,189.797z"/>
						</defs>
						<use xlink:href="#XMLID_1_"  style="overflow:visible;fill:#FFFFFF;"/>
						<clipPath id="XMLID_00000110452418337989273390000009808638078535412358_">
							<use xlink:href="#XMLID_1_"  style="overflow:visible;"/>
						</clipPath>
						<path style="clip-path:url(#XMLID_00000110452418337989273390000009808638078535412358_);fill:#C6FF00;" d="M283.994,194.416
							c7.314-0.385,1.155-14.628-1.155-16.938c0,0,2.709-4.027,5.763-9.014c-8.277-4.324-16.397-6.724-18.558-4.293
							c-4.642,5.223-2.114,15.222,0,24.947c2.114,9.725-6.343,13.954-12.262,22.41c-5.92,8.457-14.377-0.846-14.377-0.846
							c-2.96,12.262-15.645,4.228-15.645,4.228c-9.725-2.96-26.216-12.685-22.833-19.451c3.383-6.765,4.228-13.108-1.691-18.605
							c-5.92-5.497-29.53-10.055-29.53-10.055l0,0c-1.236,4.166,4.75,17.827,21.364,22.996c0,0-3.08,10.393-1.925,14.628
							c1.155,4.234,6.544,0.385,11.933,5.004c5.389,4.619,10.385,12.929,30.787,14.468c20.402,1.54,32.729-9.464,36.964-15.623
							C277.065,202.115,276.68,194.801,283.994,194.416z"/>
						<path style="opacity:0.5;clip-path:url(#XMLID_00000110452418337989273390000009808638078535412358_);fill:#FFFFFF;" d="
							M283.994,194.416c7.314-0.385,1.155-14.628-1.155-16.938c0,0,2.709-4.027,5.763-9.014c-8.277-4.324-16.397-6.724-18.558-4.293
							c-4.642,5.223-2.114,15.222,0,24.947c2.114,9.725-6.343,13.954-12.262,22.41c-5.92,8.457-14.377-0.846-14.377-0.846
							c-2.96,12.262-15.645,4.228-15.645,4.228c-9.725-2.96-26.216-12.685-22.833-19.451c3.383-6.765,4.228-13.108-1.691-18.605
							c-5.92-5.497-29.53-10.055-29.53-10.055l0,0c-1.236,4.166,4.75,17.827,21.364,22.996c0,0-3.08,10.393-1.925,14.628
							c1.155,4.234,6.544,0.385,11.933,5.004c5.389,4.619,10.385,12.929,30.787,14.468c20.402,1.54,32.729-9.464,36.964-15.623
							C277.065,202.115,276.68,194.801,283.994,194.416z"/>
						<path style="clip-path:url(#XMLID_00000110452418337989273390000009808638078535412358_);fill:#C6FF00;" d="M253.893,196.745
							c0.283,2.436-5.129,5.066-12.088,5.875c-6.959,0.809-12.83-0.509-13.113-2.945c-0.283-2.436,5.129-5.066,12.087-5.875
							C247.739,192.99,253.609,194.309,253.893,196.745z"/>
						<path style="opacity:0.5;clip-path:url(#XMLID_00000110452418337989273390000009808638078535412358_);fill:#FFFFFF;" d="
							M253.893,196.745c0.283,2.436-5.129,5.066-12.088,5.875c-6.959,0.809-12.83-0.509-13.113-2.945
							c-0.283-2.436,5.129-5.066,12.087-5.875C247.739,192.99,253.609,194.309,253.893,196.745z"/>
						<use xlink:href="#XMLID_1_"  style="overflow:visible;fill:none;stroke:#263238;stroke-width:1.1133;stroke-miterlimit:10;"/>
					</g>
					<g>
						<path style="fill:#C6FF00;stroke:#263238;stroke-width:1.1133;stroke-miterlimit:10;" d="M274.687,158.948
							c-9.954,6.719-6.47,13.438-1.991,17.17c2.735,2.279,7.133,1.959,10.148,1.365c-0.002-0.001-0.003-0.004-0.005-0.005
							c0,0,14.243-21.172,14.243-26.561C297.083,150.917,284.641,152.23,274.687,158.948z"/>
						<path style="fill:#C6FF00;stroke:#263238;stroke-width:1.1133;stroke-miterlimit:10;" d="M173.707,166.801
							c-1.236,4.166,4.75,17.827,21.364,22.996c0,0,12.676-1.236,8.445-11.438C199.57,168.84,179.601,166.47,173.707,166.801z"/>
					</g>
				</g>
				<g>
					<g>
						<path style="fill:#C6FF00;stroke:#263238;stroke-width:1.1133;stroke-miterlimit:10;" d="M232.411,148.992
							c-1.315,0.227-2.571,0.464-3.779,0.707c1.991,10.098,5.29,26.917,8.23,26.917c3.045,0,5.187-18.436,6.149-28.768
							C239.779,147.982,236.246,148.331,232.411,148.992z"/>
						<path style="fill:#C6FF00;stroke:#263238;stroke-width:1.1133;stroke-miterlimit:10;" d="M220.936,173.63
							c3.062-1.801,2.604-15.329,2.117-22.668c-3.717,0.943-6.79,1.941-9.317,2.908C214.855,160.742,217.673,175.55,220.936,173.63z
							"/>
						<path style="fill:#C6FF00;stroke:#263238;stroke-width:1.1133;stroke-miterlimit:10;" d="M250.549,167.409
							c3.136,1.098,4.888-10.151,5.88-18.813c-2.699-0.444-5.892-0.767-9.561-0.809
							C246.772,154.904,247.162,166.224,250.549,167.409z"/>
					</g>
					
						<path style="fill:#C6FF00;stroke:#263238;stroke-width:1.1133;stroke-linecap:round;stroke-linejoin:round;stroke-miterlimit:10;" d="
						M246.361,206.355c-1.693-0.411-5.323-0.921-8.674,1.063c-0.495,0.293-0.58,0.982-0.16,1.375l5.318,4.985
						c0.427,0.4,1.121,0.263,1.363-0.27l2.717-5.971C247.146,207.053,246.878,206.48,246.361,206.355z"/>
					<path style="fill:#263238;" d="M233.737,198.01c0.734,1.926,0.445,3.825-0.647,4.241c-1.092,0.416-2.572-0.808-3.306-2.734
						c-0.734-1.926-0.445-3.825,0.647-4.241C231.523,194.86,233.003,196.084,233.737,198.01z"/>
					<path style="fill:#263238;" d="M248.221,196.632c-0.38,2.026,0.243,3.843,1.391,4.058c1.148,0.215,2.387-1.253,2.767-3.279
						c0.38-2.026-0.243-3.843-1.392-4.058C249.839,193.138,248.601,194.606,248.221,196.632z"/>
					
						<path style="fill:none;stroke:#263238;stroke-width:1.1133;stroke-linecap:round;stroke-linejoin:round;stroke-miterlimit:10;" d="
						M244.208,213.508c0,0-7.097,9.643-13.567-0.063"/>
					
						<path style="fill:none;stroke:#263238;stroke-width:1.1133;stroke-linecap:round;stroke-linejoin:round;stroke-miterlimit:10;" d="
						M242.845,213.778c0,0,4.718,4.894,9.695,2.156c4.977-2.737,1.991-6.968,1.991-6.968"/>
					
						<path style="fill:none;stroke:#263238;stroke-width:3.3399;stroke-linecap:round;stroke-linejoin:round;stroke-miterlimit:10;" d="
						M221.185,190.303c0,0,1.742-6.221,9.954-4.728"/>
					
						<path style="fill:none;stroke:#263238;stroke-width:3.3399;stroke-linecap:round;stroke-linejoin:round;stroke-miterlimit:10;" d="
						M246.07,184.58c0,0,6.221-3.733,11.945,2.24"/>
					
						<line style="fill:none;stroke:#263238;stroke-width:1.1133;stroke-linecap:round;stroke-miterlimit:10;" x1="216.457" y1="206.976" x2="222.429" y2="208.469"/>
					
						<line style="fill:none;stroke:#263238;stroke-width:1.1133;stroke-linecap:round;stroke-miterlimit:10;" x1="221.683" y1="210.708" x2="216.457" y2="211.704"/>
					
						<line style="fill:none;stroke:#263238;stroke-width:1.1133;stroke-linecap:round;stroke-miterlimit:10;" x1="222.678" y1="213.446" x2="218.945" y2="215.436"/>
					
						<line style="fill:none;stroke:#263238;stroke-width:1.1133;stroke-linecap:round;stroke-miterlimit:10;" x1="260.503" y1="204.238" x2="265.728" y2="202.994"/>
					
						<line style="fill:none;stroke:#263238;stroke-width:1.1133;stroke-linecap:round;stroke-miterlimit:10;" x1="261.498" y1="206.727" x2="264.982" y2="206.727"/>
					
						<line style="fill:none;stroke:#263238;stroke-width:1.1133;stroke-linecap:round;stroke-miterlimit:10;" x1="262.245" y1="209.215" x2="266.973" y2="210.46"/>
				</g>
			</g>
		</g>
	</g>
</g>
</svg>
